<?xml version="1.0" standalone="no"?>
<!DOCTYPE svg PUBLIC "-//W3C//DTD SVG 20010904//EN"
 "http://www.w3.org/TR/2001/REC-SVG-20010904/DTD/svg10.dtd">
<svg version="1.0" xmlns="http://www.w3.org/2000/svg"
 width="1280.000000pt" height="1076.000000pt" viewBox="0 0 1280.000000 1076.000000"
 preserveAspectRatio="xMidYMid meet">
<metadata>
Created by potrace 1.15, written by Peter Selinger 2001-2017
</metadata>
<g transform="translate(0.000000,1076.000000) scale(0.100000,-0.100000)"
fill="#000000" stroke="none">
<path d="M5282 10239 c-18 -4 -38 -12 -46 -18 -10 -8 -30 -10 -58 -6 -35 5
-48 3 -70 -15 -33 -25 -45 -78 -29 -119 20 -48 6 -75 -46 -89 -34 -9 -60 -28
-108 -76 -34 -34 -68 -72 -74 -84 -18 -34 -13 -89 15 -145 41 -82 67 -110 129
-142 116 -58 227 -26 310 90 49 69 65 79 65 43 0 -13 11 -45 24 -73 23 -48 67
-164 81 -212 5 -20 3 -23 -22 -23 -15 0 -48 -9 -72 -20 -33 -15 -66 -20 -140
-21 -53 0 -136 -4 -186 -9 -49 -5 -169 -14 -265 -20 -96 -6 -218 -15 -270 -19
-89 -7 -97 -6 -125 15 -16 12 -50 25 -75 29 -25 4 -58 18 -73 31 -43 36 -68
38 -123 12 l-49 -23 0 -73 c0 -71 -1 -74 -32 -93 -45 -29 -79 -86 -91 -156 -9
-54 -8 -68 9 -114 l20 -52 -22 -71 c-33 -110 -38 -200 -17 -303 18 -85 59
-205 80 -230 12 -15 27 6 -254 -335 -103 -125 -208 -255 -233 -289 -25 -34
-62 -74 -82 -89 -121 -89 -176 -215 -176 -406 0 -90 4 -123 21 -165 13 -35 22
-88 26 -149 7 -134 32 -201 119 -325 70 -98 196 -206 302 -257 43 -21 93 -51
110 -67 44 -42 67 -51 131 -51 56 0 57 0 39 -20 -10 -11 -18 -36 -19 -61 -1
-52 36 -89 90 -89 19 0 34 -2 34 -5 0 -18 -55 -84 -75 -89 -29 -7 -118 -87
-144 -130 -20 -31 -20 -36 -7 -82 8 -27 17 -61 20 -75 17 -80 115 -149 213
-149 100 0 159 40 219 147 l35 63 -36 75 c-22 45 -53 89 -78 112 -23 20 -50
54 -59 75 -9 21 -24 41 -33 44 -17 7 -20 39 -5 49 16 10 12 78 -6 103 -8 12
-29 29 -45 37 -16 9 -27 20 -25 24 17 27 -68 161 -101 161 -7 0 -13 7 -13 16
0 14 8 15 58 8 75 -10 126 -7 170 12 49 20 76 47 129 126 52 79 179 218 199
218 25 0 54 -73 75 -188 5 -30 21 -77 35 -104 24 -47 25 -57 19 -130 -6 -66
-11 -81 -31 -97 -13 -10 -24 -25 -24 -32 0 -25 34 -104 57 -132 17 -21 23 -41
23 -76 0 -26 6 -61 14 -77 8 -16 17 -80 21 -144 8 -128 15 -153 51 -191 25
-26 25 -29 15 -100 -12 -86 -27 -104 -81 -94 -19 4 -51 7 -70 7 -62 0 -224
-24 -255 -38 -16 -7 -46 -16 -65 -19 -19 -3 -78 -25 -130 -50 -52 -25 -102
-45 -111 -45 -10 0 -40 -16 -68 -34 l-51 -35 -24 37 c-47 72 -180 182 -221
182 -12 0 -34 9 -49 21 -22 18 -38 20 -109 18 -45 -1 -102 1 -127 5 -33 6 -56
4 -82 -7 -22 -9 -52 -13 -75 -10 -28 4 -51 -1 -81 -16 -23 -12 -58 -21 -79
-21 -21 0 -58 -9 -82 -20 -23 -11 -47 -18 -52 -15 -4 3 -35 -8 -68 -25 -33
-16 -69 -30 -78 -30 -10 0 -28 -6 -39 -14 -11 -8 -49 -20 -85 -26 -35 -6 -91
-20 -124 -31 -33 -12 -87 -24 -120 -28 -34 -5 -70 -12 -80 -18 -11 -5 -33 -9
-50 -8 -16 1 -39 -3 -50 -9 -11 -6 -49 -12 -85 -12 -142 -3 -201 -24 -208 -75
-2 -13 -20 -38 -40 -55 -31 -27 -37 -38 -37 -72 0 -26 7 -48 19 -61 23 -25 26
-21 -49 -55 -80 -36 -113 -69 -131 -133 -24 -82 5 -200 60 -246 76 -63 179
-82 266 -47 67 26 91 48 129 114 42 77 44 96 16 160 -42 95 -35 103 51 55 44
-24 66 -30 112 -30 180 2 400 -16 502 -39 25 -6 81 -17 125 -25 125 -24 121
-20 70 -71 -25 -24 -45 -50 -45 -57 0 -7 -16 -28 -35 -47 -81 -79 -82 -139 -4
-215 28 -28 76 -84 107 -125 31 -41 93 -119 136 -174 75 -93 100 -128 194
-265 l36 -53 -41 -39 c-23 -21 -51 -39 -62 -39 -10 0 -41 -11 -68 -25 -26 -13
-151 -57 -278 -96 -202 -62 -241 -71 -316 -73 -107 -2 -128 -14 -158 -93 -45
-114 -59 -162 -56 -180 2 -10 6 -56 9 -102 3 -55 10 -89 20 -100 9 -10 16 -23
16 -29 0 -25 39 -73 131 -159 53 -50 107 -97 120 -104 71 -37 155 -119 192
-184 39 -71 70 -152 63 -163 -2 -4 -9 -56 -15 -117 -22 -235 -11 -479 26 -554
l21 -41 -39 -39 c-43 -42 -48 -69 -24 -115 15 -28 14 -31 -11 -57 -25 -26 -26
-28 -13 -83 7 -34 9 -60 3 -65 -5 -5 -34 -16 -65 -25 -70 -20 -128 -62 -154
-112 -11 -21 -30 -56 -43 -76 -24 -38 -24 -66 3 -98 7 -8 20 -36 30 -63 27
-72 78 -112 160 -126 83 -15 136 -7 200 27 43 24 55 37 94 113 l44 85 -28 69
c-44 111 -66 140 -128 165 -51 21 -55 26 -61 62 -6 34 -3 44 18 63 13 12 27
32 31 44 3 12 24 30 45 41 62 32 76 78 41 135 l-18 30 43 55 c65 84 79 139 50
205 -14 32 -10 43 45 160 23 48 38 98 45 144 2 19 9 40 14 46 20 24 40 100 46
174 9 108 7 128 -21 176 -14 23 -25 48 -25 55 0 7 -10 23 -22 35 -47 47 -71
76 -65 81 3 3 35 8 73 10 37 3 74 9 83 13 19 10 538 21 1086 22 338 1 410 -1
461 -15 105 -27 252 -19 339 19 17 7 46 20 66 28 35 15 85 56 175 145 65 63
75 57 85 -50 3 -37 12 -74 19 -83 8 -10 14 -51 15 -118 1 -56 5 -110 9 -119 8
-17 6 -17 -30 -2 -22 9 -46 22 -54 29 -8 7 -62 28 -120 46 -91 28 -119 33
-210 32 -125 0 -211 -21 -367 -89 -110 -48 -328 -114 -375 -114 -16 0 -41 -6
-57 -14 -45 -24 -208 -200 -214 -233 -2 -15 -14 -50 -25 -78 -11 -27 -30 -84
-42 -125 -30 -98 -57 -145 -115 -199 -44 -41 -53 -45 -108 -48 -70 -4 -136
-31 -171 -68 -20 -22 -28 -25 -45 -16 -45 25 -118 7 -146 -36 -9 -12 -24 -23
-35 -23 -24 0 -75 -46 -60 -55 5 -3 10 -19 10 -34 0 -25 -5 -29 -50 -39 -73
-17 -127 -57 -157 -116 -14 -28 -39 -64 -54 -80 -32 -33 -38 -76 -14 -96 8 -7
15 -22 15 -34 0 -12 12 -46 26 -74 30 -60 81 -96 153 -107 38 -6 43 -5 38 9
-4 10 1 20 15 27 18 9 24 8 34 -6 7 -10 15 -22 17 -28 5 -17 95 10 134 40 40
31 117 177 110 208 -6 24 -24 75 -45 128 -18 44 -67 90 -118 112 -37 15 -53
40 -37 56 7 7 22 3 44 -10 39 -24 97 -27 125 -7 10 8 23 11 29 6 5 -4 28 -10
50 -12 57 -7 127 22 185 76 41 39 55 46 89 46 35 0 40 3 43 26 3 23 13 30 93
59 159 57 281 129 309 182 8 16 33 48 56 72 23 25 48 58 55 75 7 17 25 42 39
55 14 14 26 30 26 37 0 18 36 27 59 15 11 -6 34 -34 52 -62 24 -36 41 -52 62
-56 17 -3 33 -16 39 -29 6 -13 19 -26 28 -29 12 -4 16 -13 13 -29 -5 -26 12
-66 27 -66 18 0 140 -130 146 -156 4 -15 21 -35 40 -46 20 -12 37 -31 41 -47
3 -14 12 -35 19 -46 19 -26 18 -32 -6 -38 -12 -3 -20 -14 -20 -27 0 -20 4 -22
33 -16 83 17 159 28 232 34 l79 7 9 36 c8 34 13 38 90 66 45 17 111 39 147 48
36 10 104 30 151 46 47 15 115 30 150 34 35 3 127 12 204 20 185 19 451 41
655 55 291 19 395 38 433 78 56 59 159 285 172 377 4 28 19 74 32 103 14 29
29 76 33 105 9 53 36 144 70 232 11 28 20 55 20 61 0 10 19 56 39 94 5 9 26
16 56 18 48 3 52 1 145 -62 14 -9 40 -26 58 -37 17 -12 32 -28 32 -35 0 -8 16
-22 36 -30 54 -23 91 -53 105 -86 8 -21 26 -36 56 -49 55 -23 58 -43 4 -34
-25 4 -51 1 -75 -9 -25 -10 -52 -13 -81 -9 -25 3 -50 1 -57 -4 -7 -6 -22 -7
-33 -3 -11 4 -32 3 -47 -2 -14 -5 -59 -7 -98 -5 -61 4 -76 1 -91 -14 -11 -11
-19 -22 -19 -26 0 -5 -5 -57 -10 -118 -8 -92 -20 -144 -75 -320 -37 -115 -76
-230 -87 -255 -46 -101 -54 -140 -38 -179 6 -15 25 -36 43 -45 18 -10 48 -26
67 -37 20 -11 54 -19 81 -19 26 0 66 -9 90 -19 27 -12 69 -19 109 -20 36 0 89
-6 118 -12 30 -6 64 -8 75 -5 12 4 65 9 117 12 52 3 99 10 105 15 18 17 66 9
167 -31 107 -42 145 -59 188 -83 67 -38 91 -48 100 -42 5 3 36 -8 67 -25 32
-16 62 -30 68 -30 5 0 24 -15 43 -32 29 -29 39 -33 86 -32 49 1 55 -1 70 -27
20 -33 64 -59 101 -59 35 0 41 -23 17 -62 -11 -18 -22 -46 -26 -62 -4 -16 -30
-49 -60 -77 -57 -52 -105 -136 -113 -201 -4 -29 -2 -38 16 -47 15 -8 21 -21
21 -43 0 -18 10 -47 23 -65 27 -42 116 -87 154 -80 15 3 34 0 43 -5 12 -8 36
-5 87 10 87 27 134 73 158 156 9 31 21 58 26 61 18 12 9 48 -28 108 -47 78
-69 103 -115 133 -28 18 -38 31 -38 50 0 39 -26 80 -66 103 -29 18 -35 26 -30
44 19 64 18 86 -3 116 -12 17 -33 34 -47 37 -26 7 -30 14 -14 30 18 18 15 89
-4 132 -13 28 -29 45 -56 57 -25 11 -43 28 -51 48 -7 17 -49 67 -92 112 -44
44 -97 103 -119 130 -22 28 -51 56 -63 62 -28 15 -49 72 -42 116 10 73 288
1033 316 1090 16 34 44 96 62 137 39 92 43 97 80 105 34 8 89 51 89 69 0 20
79 209 98 236 21 28 72 137 72 152 0 6 15 31 34 57 55 76 133 214 167 298 18
43 48 105 67 138 19 33 70 132 114 220 99 197 175 332 192 342 23 14 62 87 58
110 -4 24 -84 103 -105 103 -8 0 -22 9 -31 19 -9 10 -45 33 -79 50 -34 17 -72
41 -84 54 -12 13 -46 34 -77 47 -31 13 -56 26 -56 29 0 3 22 16 48 28 26 12
54 26 62 31 8 5 33 15 55 22 22 7 62 23 89 36 28 13 53 24 57 24 5 0 44 17 88
38 l81 38 40 79 c25 50 39 88 36 101 -12 47 74 373 104 394 4 3 10 21 14 42 8
42 -4 58 -56 77 -39 15 -68 28 -167 75 -40 20 -86 36 -103 36 -38 0 -85 25
-93 49 -4 13 -18 20 -46 24 -36 5 -109 43 -109 57 0 3 15 29 33 57 19 29 39
78 46 110 7 32 16 70 20 85 10 32 6 63 -21 146 -18 58 -19 65 -4 81 9 10 27
44 40 77 26 64 35 172 21 269 -17 121 -94 254 -170 295 -15 8 -136 158 -274
340 -346 455 -351 462 -351 475 0 7 11 33 24 58 23 43 38 85 51 149 l5 27 43
-24 c23 -14 51 -25 62 -25 11 0 39 -13 62 -29 25 -17 62 -31 92 -35 27 -4 65
-13 84 -21 19 -8 50 -14 68 -15 113 -1 134 -2 138 -6 3 -3 4 -23 2 -45 -2 -35
2 -44 32 -71 34 -31 35 -32 20 -63 -8 -18 -28 -39 -43 -48 -26 -16 -54 -46
-108 -117 -36 -46 -39 -99 -10 -146 13 -21 31 -52 40 -69 9 -16 35 -45 58 -62
36 -29 49 -33 99 -33 85 0 149 23 199 70 23 22 42 46 42 51 0 6 9 23 19 38 11
15 22 42 26 61 6 32 0 43 -54 117 -44 59 -73 87 -105 102 -26 13 -50 34 -61
54 -17 32 -17 34 2 73 27 54 15 98 -32 121 -24 11 -36 25 -41 46 -8 36 -83
113 -129 133 -19 8 -50 14 -69 14 -19 0 -38 4 -41 10 -3 5 -34 18 -68 29 -89
28 -246 92 -288 117 -20 12 -51 44 -70 70 -18 27 -59 81 -92 119 -48 57 -74
77 -135 108 -42 20 -82 37 -88 37 -7 0 -45 18 -86 39 -40 22 -194 94 -343 162
-148 67 -274 128 -278 135 -30 51 -202 129 -320 144 -101 13 -262 -6 -332 -40
-25 -12 -64 -24 -86 -27 -39 -6 -41 -5 -30 15 8 15 8 45 0 114 -6 51 -12 109
-13 128 0 19 -8 52 -15 72 -18 46 -42 55 -166 62 -65 4 -133 17 -245 50 -85
24 -258 72 -385 106 -176 48 -248 72 -313 106 -92 49 -116 53 -132 24 -6 -11
-17 -20 -25 -20 -8 0 -15 -6 -15 -14 0 -7 -13 -30 -30 -51 -16 -21 -30 -43
-30 -50 0 -7 -9 -24 -20 -38 -11 -14 -20 -32 -20 -40 0 -9 -12 -30 -27 -48
-20 -23 -28 -44 -29 -78 -1 -25 -12 -68 -23 -94 -12 -27 -21 -57 -21 -67 0 -9
-7 -23 -15 -30 -15 -13 -35 -6 -35 12 0 6 -17 34 -37 62 -21 28 -47 69 -58 90
-11 21 -32 50 -47 65 -16 14 -28 37 -28 50 0 39 -33 81 -150 193 -60 58 -110
110 -110 116 0 15 -63 62 -82 62 -8 0 -18 3 -21 7 -10 9 -47 10 -85 2z m-150
-221 c-9 -9 -12 -7 -12 12 0 19 3 21 12 12 9 -9 9 -15 0 -24z m93 -21 c27 -21
15 -29 -23 -16 -21 7 -32 18 -32 30 0 21 12 18 55 -14z m364 -262 c16 -14 47
-52 69 -83 21 -31 69 -101 106 -155 40 -58 65 -104 62 -113 -4 -12 -21 -14
-78 -12 l-72 3 -32 54 c-31 52 -114 281 -114 315 0 23 24 20 59 -9z m-1477
-509 c-7 -13 -22 16 -21 44 0 24 0 24 13 -5 7 -16 11 -34 8 -39z m848 -216
c22 -22 44 -40 50 -40 6 0 19 -20 29 -43 11 -24 35 -57 54 -73 26 -22 36 -40
41 -73 4 -25 13 -59 21 -75 26 -59 37 -228 17 -248 -9 -9 -18 -8 -38 3 -15 7
-32 14 -38 14 -6 0 -24 10 -39 21 -22 18 -30 37 -46 120 -32 166 -50 201 -146
293 -47 44 -85 84 -85 90 0 13 56 39 95 44 17 2 34 5 38 6 4 0 25 -17 47 -39z
m-342 -113 c88 -42 202 -138 202 -169 0 -5 13 -20 28 -33 25 -21 52 -80 52
-115 0 -13 -17 -11 -99 10 -68 17 -99 21 -209 27 -100 5 -104 5 -190 -31 -48
-20 -104 -46 -126 -57 -46 -25 -66 -14 -43 22 9 13 21 44 27 68 6 24 25 58 41
75 135 144 227 222 262 225 4 1 29 -9 55 -22z m5347 -776 c3 -5 2 -12 -3 -15
-13 -8 -53 5 -46 15 7 12 41 12 49 0z m-1152 -1670 c9 -16 17 -39 17 -50 0
-46 48 -117 101 -152 51 -32 56 -33 173 -37 104 -4 129 -1 181 17 99 35 124
22 64 -35 -17 -16 -40 -46 -51 -68 -11 -21 -49 -69 -84 -107 -56 -59 -64 -73
-64 -106 0 -34 -6 -44 -58 -90 -32 -28 -68 -70 -79 -94 -25 -50 -63 -183 -63
-217 0 -18 -10 -28 -43 -42 -24 -11 -54 -28 -68 -38 -36 -29 -180 -64 -197
-48 -23 22 12 249 53 341 22 50 28 94 15 110 -16 19 -6 137 16 198 23 62 36
176 35 311 0 66 2 123 5 128 10 16 30 7 47 -21z m-4625 -557 c30 -21 19 -35
-21 -27 -41 8 -42 9 -27 28 16 19 20 19 48 -1z m3972 -269 c16 -19 -6 -86 -64
-194 -78 -144 -130 -208 -197 -241 -162 -82 -227 -92 -637 -94 l-302 -1 -7 35
c-7 41 11 137 39 202 21 50 112 144 165 171 17 9 70 28 118 42 84 24 98 25
369 25 306 0 377 7 446 44 55 30 55 30 70 11z m-2091 -121 c129 -29 236 -117
279 -229 23 -60 32 -208 13 -220 -6 -3 -41 0 -80 6 -57 10 -111 9 -287 -6
-383 -30 -523 2 -647 147 -24 29 -57 78 -72 108 -15 30 -35 66 -45 80 -31 43
-60 100 -60 115 0 19 26 19 80 0 54 -19 168 -19 346 0 234 25 357 25 473 -1z
m-2985 -4243 c3 -5 -2 -19 -12 -31 -14 -17 -24 -21 -42 -15 l-24 8 28 23 c29
26 42 29 50 15z m6297 -312 c13 -13 19 -30 17 -47 -3 -26 -5 -27 -53 -24 -27
2 -52 5 -54 7 -7 8 22 66 38 75 23 14 29 12 52 -11z"/>
</g>
</svg>
