<?xml version="1.0" encoding="UTF-8" standalone="no"?>
<svg
   xmlns:dc="http://purl.org/dc/elements/1.1/"
   xmlns:cc="http://creativecommons.org/ns#"
   xmlns:rdf="http://www.w3.org/1999/02/22-rdf-syntax-ns#"
   xmlns:svg="http://www.w3.org/2000/svg"
   xmlns="http://www.w3.org/2000/svg"
   id="svg8"
   version="1.1"
   viewBox="0 0 148.96855 199.60575"
   height="199.60574mm"
   width="148.96855mm">
  <defs
     id="defs2" />
  <metadata
     id="metadata5">
    <rdf:RDF>
      <cc:Work
         rdf:about="">
        <dc:format>image/svg+xml</dc:format>
        <dc:type
           rdf:resource="http://purl.org/dc/dcmitype/StillImage" />
        <dc:title></dc:title>
      </cc:Work>
    </rdf:RDF>
  </metadata>
  <g
     transform="translate(35.261399,-43.341352)"
     id="layer1">
    <path
       id="path4548"
       d="m 57.066134,242.35112 c -1.3017,-0.35038 -2.70507,-0.94325 -3.1186,-1.31749 -0.41353,-0.37424 -0.99412,-0.68257 -1.2902,-0.68518 -0.30177,-0.003 -0.71411,-0.54734 -0.93835,-1.23947 -0.3701,-1.1424 -0.52895,-1.24953 -2.12438,-1.43273 -2.19107,-0.25159 -2.78684,-0.96853 -3.52646,-4.24363 -1.01997,-4.51656 -0.62936,-14.58167 1.21443,-31.29305 0.2204,-1.99755 0.29881,-4.03795 0.17425,-4.53421 -0.19887,-0.79237 -0.3642,-0.87815 -1.35715,-0.70413 -0.62189,0.109 -3.39035,0.23476 -6.15213,0.27949 -7.16324,0.11601 -6.81702,0.57792 -7.70733,-10.28285 -0.67146,-8.19098 -0.46684,-27.25708 0.34863,-32.48569 0.31783,-2.03785 1.32947,-5.68254 2.5459,-9.17223 3.14197,-9.01371 3.09887,-10.01869 -0.9294,-21.66568 -2.68894,-7.77459 -3.98007,-12.77296 -3.77328,-14.60759 0.20844,-1.84928 2.17602,-5.77608 5.0862,-10.150791 1.13826,-1.71109 2.59745,-4.14294 3.24266,-5.40412 1.95938,-3.83004 2.45054,-4.49327 3.47783,-4.69628 1.05678,-0.20885 1.73897,0.14278 4.49411,2.31637 l 1.76389,1.39158 -1.44488,-1.35792 c -1.78329,-1.67597 -2.47522,-2.98409 -3.29784,-6.23473 -0.62454,-2.4679 -0.67052,-2.5344 -1.82952,-2.64597 -1.83821,-0.17696 -5.25167,-4.02951 -6.12858,-6.91694 -0.60363,-1.98761 -0.69748,-4.6405 -0.17557,-4.96305 0.37944,-0.23451 0.45714,0.28777 0.35813,2.40693 -0.0394,0.84219 0.27962,2.04894 0.84945,3.21363 0.98359,2.01038 4.37082,5.49194 5.34314,5.49194 0.51283,0 0.56356,-0.25772 0.36452,-1.85209 -0.3087,-2.47273 -0.99861,-5.69008 -1.2671,-5.90903 -0.11897,-0.097 -0.48605,-0.89626 -0.81573,-1.77611 -0.37624,-1.00412 -0.98082,-1.82504 -1.62382,-2.20487 -1.13969,-0.67323 -2.15026,-0.79183 -2.15026,-0.25235 0,0.19403 -0.15875,0.35278 -0.35278,0.35278 -0.61546,0 -0.38078,-0.66574 0.37779,-1.07171 0.50651,-0.27109 1.04164,-0.28254 1.74495,-0.0374 1.00303,0.34966 1.00971,0.34302 0.59666,-0.59157 -0.22975,-0.51985 -0.61637,-1.10393 -0.85915,-1.29796 -0.74787,-0.59771 -1.16155,-3.84824 -0.8279,-6.50543 0.40493,-3.2249 2.76145,-7.32288 6.1996,-10.78111 2.70922,-2.72505 5.35379,-4.20513 9.9072,-5.54477 2.47642,-0.72857 2.82855,-0.74626 6.57109,-0.33011 2.17494,0.24184 4.59583,0.72541 5.37974,1.0746 1.51577,0.67518 3.71835,2.54591 3.71835,3.15812 0,0.23203 -1.3551,0.36241 -3.67818,0.35389 -3.87384,-0.0142 -5.45473,0.19995 -6.90515,0.93545 -0.48507,0.24598 -2.30886,1.12722 -4.05288,1.95832 -4.11228,1.95968 -6.88179,4.82319 -9.70713,10.03659 -0.6309,1.16417 -1.39036,2.39546 -1.68767,2.73619 -0.29732,0.34074 -0.44841,0.71171 -0.33575,0.82436 0.11266,0.11266 0.4739,-0.20581 0.80276,-0.70772 0.32886,-0.5019 0.74145,-0.91255 0.91686,-0.91255 0.40677,0 -0.005,1.72445 -0.6291,2.63614 -0.26209,0.38272 -0.4741,0.93834 -0.47113,1.23472 0.005,0.46911 0.0479,0.47169 0.3336,0.0199 0.1805,-0.28542 0.45027,-0.39687 0.59948,-0.24766 0.14921,0.14921 0.0781,0.54148 -0.15805,0.87173 -1.13703,1.59017 -1.30163,2.45665 -1.21977,6.42127 0.0959,4.64688 1.48015,11.53812 1.84236,9.17222 0.19892,-1.2993 0.46429,-1.1647 0.84485,0.42852 0.14671,0.61417 0.40176,0.8913 0.71105,0.77262 0.348,-0.13354 0.7957,0.77854 1.60787,3.27564 0.61907,1.9034 1.35293,3.81232 1.63078,4.24206 0.27787,0.42974 0.50521,1.08641 0.50521,1.45928 0,0.40852 0.94633,1.45556 2.38125,2.63468 2.76763,2.27424 2.53867,2.01712 6.68065,7.502221 4.45318,5.89722 6.16712,9.25105 7.64653,14.96276 0.27641,1.06715 0.77807,2.62308 1.11481,3.45761 0.5415,1.34203 0.71907,1.49728 1.53686,1.34371 0.50854,-0.0955 2.30143,-0.2756 3.98421,-0.40022 1.68277,-0.12461 3.30699,-0.41178 3.60937,-0.63814 1.16126,-0.86931 1.71903,-10.08774 0.92418,-15.27399 -0.48065,-3.13608 -2.54552,-7.350661 -5.1345,-10.479931 l -1.99538,-2.41179 -0.78353,0.7361 c -0.43095,0.40483 -0.94407,0.73608 -1.14028,0.73608 -0.54212,0 -1.72596,1.41755 -2.54156,3.04329 -1.00351,2.000321 -2.52428,2.611001 -2.52428,1.01365 0,-0.53207 -0.20135,-0.88194 -0.50755,-0.88194 -0.74331,0 -1.03048,-2.6012 -0.72987,-6.61088 0.25626,-3.41793 0.25679,-3.41944 1.66776,-4.70919 0.94308,-0.86206 1.27346,-1.37543 0.99566,-1.54712 -0.22867,-0.14133 -0.33052,-0.4791 -0.22634,-0.75061 0.10419,-0.27151 0.0253,-3.47014 -0.17528,-7.10807 -0.4445,-8.06127 -0.44343,-9.56697 0.007,-10.10986 0.19261,-0.23209 0.85106,-1.84242 1.46322,-3.57854 2.21955,-6.29471 3.56335,-7.95618 5.53553,-6.84413 1.10818,0.62487 1.59077,1.65659 0.57274,1.22444 -0.36602,-0.15537 -1.09107,-0.35582 -1.61122,-0.44545 -0.83704,-0.14422 -1.04427,0.0338 -1.8033,1.5492 -0.47166,0.94169 -1.1396,2.58528 -1.4843,3.65243 -0.34471,1.06715 -1.02019,2.72563 -1.50107,3.6855 -0.84118,1.67903 -0.86422,1.90651 -0.60729,5.99723 0.29516,4.69952 0.4561,8.05935 0.49515,10.33741 0.021,1.22682 0.14707,1.4993 0.69352,1.4993 0.3673,0 0.76452,0.25202 0.88272,0.56005 0.17188,0.44791 0.51223,0.50981 1.69987,0.30916 1.70036,-0.28728 2.52214,-0.69 3.89897,-1.91074 1.20176,-1.06551 1.41976,-1.86104 2.54734,-9.2958 0.95745,-6.31302 1.03054,-12.21935 0.1975,-15.95934 -0.65978,-2.96213 -2.46982,-6.1596 -4.24977,-7.50731 -0.87313,-0.6611 -1.63498,-1.40193 -1.69301,-1.64628 -0.18874,-0.79473 0.99738,-0.89512 2.36035,-0.19978 1.876,0.95706 3.76447,3.86185 4.48497,6.89866 0.88121,3.71414 0.8,13.24521 -0.17524,20.56617 -0.86694,6.50797 -1.88755,10.08173 -3.89541,13.6401 l -1.38598,2.45628 1.29869,1.43034 c 0.71427,0.78669 1.74589,1.98323 2.29247,2.659 0.54659,0.67576 0.9133,0.96269 0.81492,0.63761 -0.32191,-1.06373 0.49697,-3.10222 1.74925,-4.3545 0.67543,-0.67544 1.39373,-1.22806 1.59622,-1.22806 0.20248,0 0.81117,0.43656 1.35264,0.97014 0.54147,0.53357 1.53761,1.26028 2.21365,1.6149 0.69352,0.36379 1.48247,1.17596 1.81046,1.86375 0.5206,1.09173 0.52705,1.34882 0.0617,2.46251 -0.28577,0.68393 -0.86478,1.728311 -1.2867,2.320841 -0.67179,0.94344 -0.92506,1.05483 -2.03793,0.89624 -0.69893,-0.0996 -1.56329,-0.29872 -1.92078,-0.44249 -0.43342,-0.17432 -0.16894,0.37243 0.79376,1.64093 2.25302,2.96869 3.71861,7.60263 4.88176,15.43526 0.25837,1.73985 0.78326,0.65157 0.7899,-1.63774 0.004,-1.27297 0.16279,-1.92355 0.50227,-2.05382 1.23941,-0.47561 1.88058,-5.21361 0.96527,-7.13303 -0.53227,-1.11618 -0.52698,-1.21662 0.0877,-1.66612 0.63457,-0.464 0.62595,-0.67821 -0.28749,-7.149391 -1.00912,-7.14892 -0.94031,-10.14357 0.32911,-14.32413 1.24827,-4.11089 4.72183,-7.86554 8.21136,-8.87584 1.10835,-0.3209 2.39767,-0.73212 2.86515,-0.91384 0.52326,-0.20339 0.93006,-0.20432 1.05834,-0.002 0.1146,0.18038 1.478356,0.67117 3.030576,1.09064 3.30598,0.89341 6.05768,2.62575 7.02292,4.4213 0.3701,0.68846 0.7992,1.25176 0.95355,1.25176 0.15436,0 0.43715,0.51593 0.62844,1.14652 0.19128,0.6306 0.60411,1.84815 0.9174,2.70569 0.36016,0.98581 0.53652,2.41279 0.47959,3.88055 -0.0602,1.55084 0.16717,3.24864 0.68481,5.11479 0.9915,3.57437 0.78703,4.95256 -1.84171,12.413741 -1.08121,3.06886 -1.96583,6.0328 -1.96583,6.58658 0,0.55379 -0.19081,1.35364 -0.42403,1.77745 -0.23322,0.4238 -0.43165,1.6729 -0.44097,2.77576 -0.014,1.66226 -0.17509,2.17509 -0.94164,2.99861 -0.50858,0.54637 -1.02314,1.4124 -1.14345,1.92449 -0.12031,0.5121 -0.94309,1.89467 -1.82839,3.07239 -1.8154,2.415 -4.950076,4.66576 -8.803456,6.32103 -2.08947,0.89755 -2.78156,1.03307 -4.49784,0.88071 l -2.02838,-0.18007 0.1763,1.10201 c 0.097,0.60611 0.25152,1.57733 0.34346,2.15826 0.20933,1.32275 -0.65562,1.96204 -3.34455,2.47198 -1.92685,0.36542 -2.66736,0.91245 -2.13238,1.57522 0.27957,0.34636 0.40097,1.75809 0.95067,11.05563 0.28167,4.76418 -0.30057,11.01765 -2.66691,28.6437 -0.56005,4.17159 -1.20601,9.33097 -1.43547,11.46527 -0.22946,2.13431 -0.78946,6.73806 -1.24444,10.23056 -1.16748,8.96166 -1.39483,14.08492 -0.71105,16.02295 0.61752,1.75026 0.70209,3.20344 0.18642,3.20344 -0.19403,0 -0.35278,0.23143 -0.35278,0.51429 0,0.54163 2.38281,2.06393 3.88056,2.47918 2.78219,0.77135 3.88055,1.95255 3.88055,4.17324 0,1.11077 -0.15664,1.31284 -1.53487,1.98003 -1.06318,0.51468 -2.5588,0.81028 -4.86665,0.96188 -2.91861,0.19171 -3.52666,0.12797 -4.90332,-0.51406 -1.76476,-0.82302 -3.15905,-1.92968 -3.15905,-2.50736 0,-0.41926 -1.02471,-0.51055 -1.91142,-0.17029 -0.30691,0.11777 -0.55802,0.49521 -0.55802,0.83874 0,0.66743 -0.9444,1.64809 -1.27183,1.32067 -0.10805,-0.10805 -0.0193,-0.52755 0.19733,-0.93222 0.44548,-0.83239 0.3108,-0.87219 -1.34469,-0.3974 -0.6489,0.1861 -1.83992,0.37253 -2.6467,0.4143 l -1.46688,0.0759 0.0328,1.67724 c 0.0343,1.75507 0.0594,1.79452 3.44025,5.41624 1.47474,1.5798 2.16054,3.46863 1.62364,4.47184 -1.02593,1.91696 -6.8175,2.64824 -11.33757,1.43155 z m 3.77784,-4.11336 c -1.50363,-1.23282 -3.13422,-1.73927 -4.03967,-1.25469 -0.39756,0.21277 -0.72283,0.52303 -0.72283,0.68948 0,0.53221 2.59203,1.39952 4.23333,1.4165 l 1.5875,0.0164 -1.05833,-0.86772 z m 19.93194,-10.02664 c 0,-0.173 -0.39687,-0.41415 -0.88194,-0.53589 -0.48507,-0.12175 -0.88195,-0.41781 -0.88195,-0.65791 0,-0.53531 -2.37838,-1.31389 -4.01364,-1.31389 -2.09524,0 -1.78684,1.51884 0.49312,2.42851 1.10046,0.43907 5.28441,0.50176 5.28441,0.0792 z m -8.6636,-77.40202 c 0.65012,-0.65012 1.59848,-2.56113 2.30214,-4.63897 0.48901,-1.444 0.77221,-1.80225 1.49312,-1.88887 0.7208,-0.0866 1.00388,0.13383 1.4915,1.16141 0.33101,0.69756 0.72677,2.05861 0.87947,3.02456 0.15269,0.96595 0.38043,1.85908 0.50609,1.98473 0.31115,0.31116 1.56305,-0.40695 3.04961,-1.7493 l 1.23473,-1.11494 -0.10437,-3.3357 c -0.0574,-1.83463 -0.23481,-3.56879 -0.39425,-3.85368 -0.17703,-0.31635 -1.00467,-0.5753 -2.12606,-0.6652 -2.03214,-0.16291 -4.0114,0.38448 -7.95866,2.20108 -1.35819,0.62506 -2.94423,1.2869 -3.52454,1.47075 -0.90772,0.28758 -1.21589,0.74688 -2.20636,3.28842 -0.63319,1.62478 -1.31936,3.12016 -1.52482,3.32307 -0.26067,0.25742 0.45944,0.48877 2.38274,0.7655 3.79254,0.54567 3.97999,0.5468 4.49966,0.0271 z m -7.57498,-1.83483 c 0,-0.19403 -0.15389,-0.11466 -0.34197,0.17638 -0.18809,0.29105 -0.34198,0.68792 -0.34198,0.88195 0,0.19403 0.15389,0.11465 0.34198,-0.17639 0.18808,-0.29104 0.34197,-0.68792 0.34197,-0.88194 z m 21.65412,-11.13165 c 1.13528,-0.25403 2.14525,-0.67323 2.24438,-0.93155 0.23643,-0.61613 -0.82656,-7.95347 -1.69382,-11.69166 -0.81935,-3.53167 -1.28089,-4.53119 -1.836,-3.97607 -0.21486,0.21486 -0.80481,0.39065 -1.31101,0.39065 -0.50619,0 -1.19083,0.19844 -1.52141,0.44097 -0.55661,0.40836 -0.56372,0.71495 -0.0962,4.14514 0.27767,2.03729 0.63139,5.37104 0.78604,7.40833 0.15464,2.03729 0.30803,3.86292 0.34085,4.05695 0.0328,0.19403 0.078,0.48882 0.10038,0.6551 0.0224,0.16628 0.23913,0.22621 0.48167,0.13318 0.24253,-0.093 1.36984,-0.377 2.50512,-0.63104 z m 9.98849,-6.72387 c 5.402216,-2.83663 8.910046,-6.24345 8.928886,-8.67176 0.007,-0.87772 0.22352,-1.22993 0.97888,-1.59098 1.3503,-0.64542 1.89698,-2.78399 0.97274,-3.80527 -0.63051,-0.69669 -0.62693,-0.73804 0.13404,-1.54805 0.58061,-0.61803 0.7219,-1.07107 0.54895,-1.76019 -0.32104,-1.27911 -1.08397,-1.17302 -3.24579,0.45133 -2.02185,1.51919 -4.585666,2.63684 -5.603476,2.44273 -0.87719,-0.16728 -1.04099,-1.59541 -0.2795,-2.43685 0.33513,-0.37032 1.29747,-1.07658 2.138516,-1.56947 1.76358,-1.03353 2.42002,-1.97173 1.80788,-2.58387 -0.22376,-0.22375 -0.57925,-0.40682 -0.78999,-0.40682 -0.21074,0 -2.599926,1.18824 -5.309306,2.64055 -3.20286,1.71683 -5.32722,2.6424 -6.07267,2.64583 -1.38109,0.006 -1.41797,-0.20195 -0.25134,-1.41965 1.55819,-1.6264 1.60363,-4.56567 0.0924,-5.97364 -1.33039,-1.23944 -3.26603,-0.66547 -2.00578,0.59478 0.24499,0.24499 0.34242,1.39209 0.25883,3.0474 -0.10463,2.07192 -0.31089,2.89371 -0.93982,3.74438 -1.08862,1.47244 -1.38224,4.15504 -0.66712,6.09501 0.78219,2.12193 1.58898,5.5067 1.84114,7.72426 0.37711,3.31644 0.42638,3.42177 1.67287,3.57652 2.55413,0.31709 3.137,0.19665 5.7897,-1.19624 z m 7.240586,-17.42226 c 1.8679,-1.06715 3.70882,-1.94028 4.09092,-1.94028 0.38211,0 0.84837,-0.19844 1.03615,-0.44097 0.18778,-0.24253 1.16171,-2.82222 2.16429,-5.73264 1.95132,-5.664551 2.24773,-8.019291 1.42217,-11.297911 l -0.39185,-1.55618 -1.04622,0.54101 c -0.57541,0.29756 -1.65237,0.64973 -2.39324,0.78261 l -1.34704,0.24158 1.24395,3.82161 c 1.60957,4.944851 1.596,4.965801 -3.11931,4.813551 -1.08763,-0.0351 -2.19888,-0.20646 -2.46945,-0.38076 -0.9473,-0.61024 0.46948,-1.05228 3.03584,-0.94719 2.05147,0.084 2.44678,0.0116 2.33555,-0.42804 -0.0736,-0.29104 -0.6869,-2.350211 -1.36281,-4.575941 -0.96268,-3.17005 -1.18544,-4.41391 -1.02821,-5.74147 0.24164,-2.04031 1.8705,-4.48349 3.61571,-5.42335 0.66125,-0.35611 1.20226,-0.82227 1.20226,-1.03593 0,-0.5323 -1.92614,-3.39768 -3.01775,-4.48929 -1.02089,-1.0209 -2.94769,-2.00492 -4.69934,-2.39999 -1.86445,-0.4205 -0.64752,0.51414 1.62753,1.24999 1.69907,0.54956 2.49261,1.08331 2.1379,1.43802 -0.27824,0.27823 -4.49335,-1.18358 -5.51928,-1.9141 -1.286916,-0.91637 -1.465166,-0.92411 -1.465166,-0.0636 0,1.12279 -2.14706,3.08601 -3.88918,3.55618 -1.47219,0.39732 -2.27039,0.33306 -4.89985,-0.39446 -1.2584,-0.34817 -3.57991,6.6486 -3.53875,10.6654 0.0107,1.04313 0.36787,4.57529 0.79375,7.84923 l 0.77431,5.952621 1.23472,0.39738 c 2.14219,0.68943 3.15641,4.01073 1.93811,6.34673 -0.28985,0.55575 -0.527,1.06671 -0.527,1.13545 0,0.25301 1.30056,-0.38985 4.92807,-2.43592 2.04324,-1.15249 4.098126,-2.30342 4.566406,-2.55764 0.71012,-0.3855 1.01336,-0.37848 1.82709,0.0423 2.04385,1.05692 1.53284,2.97211 -1.23988,4.6469 -1.640536,0.99092 -2.674966,2.21537 -1.871566,2.21537 0.25024,0 1.983266,-0.87313 3.851166,-1.94028 z m -0.87822,-5.5215 c -0.77093,-0.57493 -1.28753,-0.68871 -2.35322,-0.51831 -1.407456,0.22507 -2.479846,0.009 -2.479846,-0.49894 0,-0.1593 0.87532,-0.39901 1.94516,-0.53268 1.083836,-0.13541 2.338906,-0.55276 2.834396,-0.94251 0.5913,-0.46512 1.17343,-0.62817 1.73739,-0.48662 0.46648,0.11708 0.94662,0.0535 1.06697,-0.1412 0.34421,-0.55693 1.03421,-0.41768 1.89249,0.38193 0.62494,0.58222 0.70352,0.8402 0.3761,1.23472 -0.22764,0.2743 -0.57791,0.49872 -0.77837,0.49872 -0.20047,0 -0.88481,0.39688 -1.52077,0.88195 -1.38593,1.05709 -1.46303,1.06058 -2.7203,0.12294 z m 1.69332,-0.65211 c 0.12583,-0.20359 -0.20105,-0.35049 -0.77293,-0.34738 -0.76944,0.004 -0.87267,0.0819 -0.46179,0.34738 0.67779,0.43802 0.96401,0.43802 1.23472,0 z m -9.429386,-9.082431 c -2.00822,-1.24531 -2.44567,-4.90042 -0.95841,-8.00804 0.83837,-1.75178 0.6771,-1.9404 -0.48164,-0.56332 -1.00076,1.18934 -1.30139,1.32082 -1.30139,0.56919 0,-0.27723 0.53468,-1.07098 1.18818,-1.76389 1.05191,-1.11535 1.38571,-1.25854 2.91042,-1.24852 1.14466,0.008 2.37293,0.33288 3.66251,0.97014 l 1.940276,0.95881 -0.0152,2.67936 c -0.0142,2.49161 -0.0973,2.78299 -1.18674,4.15848 -1.110296,1.40187 -3.349816,2.8746 -4.340206,2.85417 -0.25026,-0.005 -0.88826,-0.27804 -1.41776,-0.60638 z m 2.83233,-0.93822 c 1.06974,-0.55659 2.25719,-1.7718 2.842526,-2.90901 0.5705,-1.10837 0.73566,-3.93409 0.25334,-4.33439 -0.70565,-0.58563 -3.558506,-1.20011 -4.488336,-0.96674 -1.21192,0.30417 -2.24102,2.65026 -2.24102,5.10893 0,1.63789 0.13387,2.00921 0.98981,2.74546 1.15201,0.99092 1.36724,1.01988 2.64368,0.35575 z m -15.16569,2.859941 c 1.61758,-1.721831 1.22808,-4.444991 -0.71743,-5.015911 -0.44173,-0.12963 -1.22876,-0.73698 -1.74894,-1.34967 l -0.94578,-1.11399 -1.07829,1.03193 c -1.46749,1.40439 -1.70035,2.89531 -0.74475,4.76843 1.19463,2.341681 3.82132,3.184201 5.23519,1.679211 z m -18.38583,-8.619381 c -0.0894,-0.34324 -0.16851,-0.14783 -0.1757,0.43426 -0.007,0.58208 0.066,0.86291 0.16263,0.62407 0.0966,-0.23884 0.10251,-0.71509 0.0131,-1.05833 z m 44.833796,0.25787 c 0.0355,-1.2475 -0.37935,-1.3566 -1.12272,-0.29529 -0.61235,0.87425 -0.44889,1.35362 0.46158,1.35362 0.45929,0 0.63924,-0.28805 0.66114,-1.05833 z m -39.035006,-2.34853 c 0.2799,-0.33726 0.53139,-0.37364 0.8359,-0.12092 0.56538,0.46922 1.06033,-0.12255 1.75917,-2.10328 0.78719,-2.23114 0.70266,-2.27986 -1.26168,-0.72714 -0.98756,0.78062 -1.90037,1.41931 -2.02847,1.41931 -0.1281,0 -0.2378,0.51594 -0.24379,1.14653 -0.006,0.63059 -0.12461,1.70215 -0.26359,2.38125 l -0.2527,1.23472 0.5274,-1.37404 c 0.29007,-0.75572 0.70756,-1.59111 0.92776,-1.85643 z m -2.15679,1.09825 c 0.18767,-0.49363 0.44105,-1.29522 0.56305,-1.78131 0.20369,-0.81158 0.14589,-0.86474 -0.70732,-0.6506 -0.55205,0.13855 -1.14205,0.0565 -1.45373,-0.20217 -0.44085,-0.36587 -0.52458,-0.2923 -0.52458,0.46092 0,0.49296 0.11175,1.18708 0.24834,1.5425 0.22221,0.57823 0.26861,0.56051 0.44097,-0.16836 0.28411,-1.20141 0.91071,-0.78142 0.82054,0.54999 -0.0932,1.37578 0.1472,1.47347 0.61273,0.24903 z m 40.557426,-1.08817 c 0.008,-0.53291 1.97176,-1.32276 2.64559,-1.06419 0.56663,0.21744 0.7275,-0.62543 0.32137,-1.68379 -0.752,-1.9597 -4.72475,1.62603 -4.72475,4.26448 0,0.4119 0.21173,0.34239 0.87585,-0.28755 0.48171,-0.45693 0.87859,-1.00996 0.88194,-1.22895 z m -43.867796,-1.43638 c -0.51963,-0.51963 -0.76777,0.21258 -0.4424,1.30538 l 0.36763,1.23473 0.12699,-1.18045 c 0.0699,-0.64924 0.0463,-1.26109 -0.0522,-1.35966 z m 46.486386,1.64442 c -0.46938,-0.46938 -0.93999,-0.6346 -1.35449,-0.47554 -0.54643,0.20968 -0.49384,0.3062 0.37632,0.69064 1.49064,0.65858 1.78673,0.59347 0.97817,-0.2151 z m -43.125496,-3.25109 c -1.52801,-0.3164 -2.35693,-0.10706 -1.55024,0.3915 0.23432,0.14482 1.02348,0.18731 1.75367,0.0944 l 1.32763,-0.16889 z m 28.52215,-6.34836 c 1.45717,-0.99175 2.60481,-2.5095 2.3731,-3.13844 -0.11299,-0.30673 -0.30931,-0.14292 -0.54884,0.45794 -0.49802,1.24931 -2.62483,2.82745 -4.23186,3.14014 l -1.30015,0.25297 1.27074,0.0406 c 0.79144,0.0253 1.71064,-0.25882 2.43701,-0.75318 z m -0.53275,-1.6757 c 0.35118,-0.38805 0.55914,-0.70555 0.46213,-0.70555 -0.097,0 -0.46373,0.3175 -0.81491,0.70555 -0.35119,0.38806 -0.55915,0.70556 -0.46213,0.70556 0.097,0 0.46372,-0.3175 0.81491,-0.70556 z m -55.45065,-22.1368 c 0.50455,-1.01865 0.85535,-1.85208 0.77956,-1.85208 -0.33457,0 -1.57291,2.07829 -1.79953,3.02012 -0.32493,1.35043 -0.0997,1.09253 1.01997,-1.16804 z m 2.53398,-3.96875 c 0.35119,-0.38806 0.55915,-0.70556 0.46213,-0.70556 -0.097,0 -0.46372,0.3175 -0.81491,0.70556 -0.35118,0.38805 -0.55914,0.70555 -0.46213,0.70555 0.097,0 0.46373,-0.3175 0.81491,-0.70555 z m 10.3474,-6.92791 c 1.93942,-0.89235 1.06074,-0.87756 -1.42479,0.024 -2.27244,0.82424 -3.80733,1.52825 -3.80733,1.74631 0,0.16388 3.88622,-1.15103 5.23212,-1.77029 z m 5.6158,1.39306 c -0.33955,-0.0887 -0.89518,-0.0887 -1.23473,0 -0.33955,0.0887 -0.0617,0.16134 0.61736,0.16134 0.6791,0 0.95691,-0.0726 0.61737,-0.16134 z M 0.06931069,239.90273 c -0.138123,-0.33955 -0.2361,-1.49048 -0.217728,-2.55764 0.105223,-6.11111 0.129318,-24.46816 0.03224,-24.56523 -0.06323,-0.0632 -1.53367999,-0.21048 -3.26768099,-0.32723 -1.733998,-0.11675 -3.549601,-0.34815 -4.03467,-0.51423 -0.48507,-0.16608 -1.371075,-0.39799 -1.968902,-0.51536 l -1.0869587,-0.21339 -0.07654,6.80591 c -0.07461,6.63472 -0.615552,12.05457 -1.559521,15.62537 -0.349216,1.32099 -0.648934,1.79071 -1.193677,1.87073 -0.400058,0.0588 -0.797013,-0.1 -0.882123,-0.35278 -0.08511,-0.25279 -0.03617,-2.84087 0.108761,-5.75129 0.144928,-2.91041 0.322076,-12.21829 0.393662,-20.68416 0.121958,-14.42287 0.09006,-15.44203 -0.506439,-16.17867 -0.870051,-1.07447 -0.798913,-1.7075 0.245348,-2.1833 0.977935,-0.44558 1.172598,-0.99414 0.352778,-0.99414 -0.291042,0 -0.529167,-0.15875 -0.529167,-0.35278 0,-0.62909 -1.83132,-0.37081 -7.76111,1.0946 -3.201458,0.79116 -6.932083,1.59558 -8.290278,1.78758 -1.358194,0.19201 -3.064756,0.43249 -3.79236,0.53441 -1.472529,0.20625 -1.748165,-0.25514 -0.529167,-0.88579 1.251751,-0.64759 7.667901,-2.5308 8.622512,-2.5308 0.474551,0 2.399714,-0.3853 4.27814,-0.85623 1.878426,-0.47093 4.158699,-0.9636 5.067275,-1.09483 0.908576,-0.13123 1.734479,-0.45365 1.83534,-0.71649 0.100862,-0.26284 -0.03415,-2.98486 -0.300041,-6.04892 -0.4718,-5.43706 -0.844533,-7.18362 -3.240897,-15.18627 -0.47967,-1.60186 -1.010267,-4.22123 -1.179105,-5.82083 -0.168837,-1.5996 -0.491631,-4.07817 -0.717318,-5.50793 -0.348444,-2.20744 -0.331649,-2.67825 0.111345,-3.12124 0.421486,-0.42149 0.673002,-0.4407 1.309525,-0.10005 0.707632,0.37871 0.954252,0.26023 2.422407,-1.16381 2.01231,-1.95185 3.707807,-2.81346 6.9958737,-3.55512 4.60381,-1.03844 6.616904,-0.64488 8.35458199,1.63333 1.098348,1.44001 1.622887,2.77693 1.97190401,5.02589 0.150555,0.97014 0.526013,2.47827 0.834347,3.35139 0.308335,0.87313 0.827892,3.175 1.154571,5.11528 l 0.593962,3.52778 6.9160533,0.0735 c 7.42606,0.079 10.67134,0.60908 14.04606,2.2945 3.27643,1.63633 4.93139,3.80559 2.90334,3.80559 -0.37661,0 -0.68474,0.21469 -0.68474,0.47709 0,0.37189 -0.4639,0.31458 -2.10372,-0.25989 -1.64671,-0.57688 -2.19652,-0.64418 -2.53088,-0.30982 -0.26029,0.26029 -0.48978,1.94679 -0.58743,4.31684 -0.18347,4.45286 -0.28963,4.33603 3.04134,3.34683 1.12043,-0.33273 1.82792,-0.74235 1.82792,-1.05833 0,-0.74437 0.94059,-0.63324 1.78468,0.21085 0.49811,0.49811 0.69211,1.08011 0.61737,1.85209 -0.0943,0.97423 -0.22769,1.11009 -0.99094,1.00952 -2.47372,-0.32594 -5.9241,-0.0614 -6.11581,0.46898 -0.26487,0.73275 0.40744,5.21052 0.82068,5.46592 0.86581,0.5351 0.005,1.70816 -1.68875,2.30147 -0.91255,0.31965 -2.35107,0.89186 -3.19672,1.27158 -3.12819,1.40465 -9.8449403,1.20735 -14.9557823,-0.43932 -3.68758301,-1.1881 -4.175189,-1.4675 -4.387956,-2.51423 -0.108458,-0.53358 -0.296414,-0.97143 -0.417682,-0.973 -1.143765,-0.0149 -9.5600917,2.29278 -9.7009527,2.65986 -0.349861,0.91172 1.112941,2.16732 3.2045927,2.75068 6.323273,1.76353 21.4602203,1.50796 26.2078203,-0.4425 2.7065,-1.11191 6.64463,-2.22054 7.03372,-1.98007 0.87111,0.53838 1.0257,1.46305 0.44735,2.67585 -0.3195,0.67002 -0.80601,1.44992 -1.08113,1.73313 -0.40843,0.42044 -0.44912,1.29435 -0.22177,4.7625 0.15315,2.33617 0.32022,5.1207 0.37126,6.18785 0.22291,4.66022 0.56789,7.8842 1.24753,11.65868 0.68867,3.82459 1.86413,11.10602 2.31457,14.33769 0.28956,2.07739 -0.0853,3.24519 -1.17447,3.65931 -1.0923,0.41529 -1.2052,0.33528 -1.36444,-0.96707 -0.0669,-0.54755 -0.28711,-1.7893 -0.48925,-2.75944 -0.64019,-3.07254 -1.37531,-7.9861 -2.19599,-14.67806 -0.43766,-3.56873 -0.81096,-6.52247 -0.82955,-6.56386 -0.055,-0.12244 -3.46742,0.92633 -4.23422,1.30132 -0.90411,0.44216 -5.79128,1.6812 -8.8898803,2.25385 l -2.399,0.44337 v 10.20919 c 0,8.09326 -0.10314,10.41026 -0.49761,11.17933 -0.544283,1.06116 -1.348316,1.27374 -1.66788,0.44097 -0.111686,-0.29104 -0.424201,-0.52917 -0.694485,-0.52917 -0.34071,0 -0.504949,0.48687 -0.535521,1.5875 -0.02424,0.87313 -0.06394,2.07655 -0.08819,2.67427 -0.06874,1.69404 -2.06263201,2.81752 -2.61042801,1.47087 z m 1.82349701,-2.82222 c 0.132624,-1.30969 0.323744,-3.65125 0.424713,-5.20347 0.100965,-1.55222 0.257404,-3.04373 0.347645,-3.31446 0.09024,-0.27073 0.159932,-7.123 0.15488,-15.22725 -0.005,-8.10426 0.08708,-14.98591 0.204752,-15.29255 0.402138,-1.04795 0.678893,-0.27153 0.669117,1.87718 -0.0091,2.00452 0.212422,2.59259 0.687257,1.82428 0.10982,-0.17769 0.238252,-1.39302 0.285404,-2.70074 l 0.08573,-2.37768 -1.234722,0.0109 c -0.679097,0.006 -1.472847,0.0316 -1.763889,0.0568 -0.458579,0.0397 -0.540487,1.82204 -0.614045,13.36132 -0.04668,7.32353 -0.17889701,16.7622 -0.29380701,20.97482 -0.11491,4.21263 -0.107033,7.82419 0.0175,8.0257 0.50693801,0.82024 0.80055501,0.24557 1.02945801,-2.01488 z m 3.392008,-5.38389 c 0.09885,-0.87091 0.09885,-5.28831 0,-9.81646 -0.137506,-6.29874 -0.07704,-8.31799 0.257358,-8.59483 0.240397,-0.19901 0.357156,-0.49118 0.259461,-0.64925 -0.225181,-0.36435 0.131988,-0.46604 5.4425993,-1.54958 4.97161,-1.01436 10.26502,-2.86974 10.26502,-3.59796 0,-0.6022 -0.29274,-0.59248 -1.41111,0.0468 -0.48507,0.27729 -1.32895,0.5098 -1.87528,0.51667 -0.54633,0.007 -1.27573,0.16364 -1.62088,0.34836 -0.34516,0.18472 -2.43816,0.52243 -4.65112,0.75047 -2.2129603,0.22804 -4.4744503,0.64401 -5.0255403,0.92439 -1.657269,0.84317 -2.054676,0.41749 -1.957447,-2.0967 0.04694,-1.21389 -0.03076,-2.46331 -0.172643,-2.77647 -0.199333,-0.43995 0.0071,-0.63161 0.907877,-0.84304 0.641223,-0.1505 1.245243,-0.30083 1.342253,-0.33406 0.097,-0.0332 1.14385,-0.18252 2.32629,-0.33175 3.3911803,-0.42798 11.0792603,1.13983 11.0792603,2.25937 0,0.19142 0.15875,0.34804 0.35278,0.34804 0.49772,0 0.44027,-2.24085 -0.0705,-2.75167 -0.25124,-0.25124 -1.46089,-0.42333 -2.97565,-0.42333 -1.40377,0 -2.99921,-0.17311 -3.54541,-0.3847 -1.4701,-0.56946 -7.7505303,-0.86107 -8.3224483,-0.38641 -0.257669,0.21384 -0.79555,0.30328 -1.195296,0.19874 -0.509136,-0.13314 -0.776115,0.003 -0.891431,0.45574 -0.09054,0.35519 -0.121334,5.48767 -0.06843,11.40552 0.05454,6.10085 -0.06805,12.18239 -0.283129,14.04539 -0.418214,3.62258 -0.09542,5.15473 1.040254,4.93751 0.439328,-0.084 0.664502,-0.56685 0.79321,-1.70082 z m -17.6718677,-0.52514 c 0.6254,-2.27037 1.055158,-11.08973 1.189777,-24.41619 0.107736,-10.6652 0.05238,-12.4498 -0.391432,-12.62011 -0.284302,-0.1091 -0.575886,-0.13939 -0.647964,-0.0673 -0.07208,0.0721 -0.201908,6.62426 -0.288509,14.56039 -0.140677,12.89162 -0.378132,20.52631 -0.732913,23.56473 -0.160828,1.37736 0.387322,0.73453 0.871041,-1.02151 z m 39.328196,-0.98655 c -0.2488,-2.7457 -1.39855,-9.62321 -2.07616,-12.419 -0.81342,-3.3562 -1.52934,-10.37976 -1.79074,-17.56816 -0.2131,-5.8604 -0.30791,-6.61837 -0.81488,-6.51453 -0.46664,0.0956 -0.56204,0.54326 -0.51112,2.39871 0.15812,5.76185 2.54981,28.44832 3.48789,33.0844 0.82377,4.0712 2.04789,4.80248 1.70501,1.01858 z m -27.70098831,-18.8131 c 0.752373,-0.15047 1.10243,-0.4253 1.10243,-0.86552 0,-0.52947 -0.268598,-0.63841 -1.49930499,-0.60806 -2.780115,0.0686 -6.432772,-0.16437 -7.228882,-0.46099 -0.932773,-0.34753 -1.8551447,-0.0694 -1.8551447,0.55945 0,0.51288 2.2713377,1.18398 4.5861107,1.35503 3.168484,0.23414 3.811347,0.23678 4.89479099,0.0201 z M 12.513414,208.27067 c 3.40753,-0.24853 7.58473,-1.17285 7.58473,-1.67833 0,-1.25518 -10.3392903,-2.59611 -13.4055603,-1.7386 -0.795946,0.22259 -0.885661,0.43416 -0.920074,2.16969 -0.05478,2.76235 -0.0035,2.81882 1.911804,2.09981 0.90976,-0.34155 3.0828603,-0.72521 4.8291003,-0.85257 z m -12.72884831,0.63807 c 0.434164,-0.1666 0.55802,-0.75387 0.55802,-2.64583 0,-1.33744 -0.06684,-2.4317 -0.148533,-2.4317 -0.848448,0 -6.66375999,1.63261 -7.70202399,2.1623 -1.442667,0.73599 -2.9029657,2.01843 -2.6202667,2.30113 0.5864497,0.58645 8.6784767,1.08776 9.91280369,0.6141 z m -8.14532799,-3.32332 c 0.889293,-0.39338 3.092284,-1.19119 4.895539,-1.77293 2.95168099,-0.95223 3.09952699,-1.03874 1.482538,-0.86755 -3.828464,0.40533 -8.2580607,1.94304 -8.2580607,2.86674 0,0.61875 -0.04163,0.62376 1.8799837,-0.22626 z m 4.504351,-3.279 c 1.474089,-0.3047 3.02190099,-0.46463 3.43958299,-0.3554 0.731305,0.19124 0.759414,0.0926 0.759414,-2.66478 v -2.86337 l -1.146527,-3.5e-4 c -0.63059099,-2.6e-4 -2.49590299,-0.2464 -4.14513899,-0.54696 -1.649236,-0.30057 -3.514548,-0.63862 -4.145139,-0.75123 l -1.1465267,-0.20475 v 4.78924 4.78925 l 1.8520827,-0.81877 c 1.018646,-0.45031 3.05816,-1.06806 4.532252,-1.37275 z m 24.8504253,-0.548 c -0.11551,-0.36393 -0.2823,-2.22924 -0.37066,-4.14514 -0.0884,-1.9159 -0.16331,-3.50643 -0.16654,-3.5345 -0.003,-0.0281 -0.60121,0.0887 -1.32881,0.25942 -1.85138,0.43448 -9.03134,1.62705 -11.4652803,1.90434 l -2.028471,0.2311 0.0011,2.35587 0.0011,2.35586 3.791131,0.0539 c 2.3392503,0.0333 4.3991003,0.26067 5.3786403,0.59376 0.87312,0.2969 2.66975,0.55045 3.99252,0.56342 2.19656,0.0216 2.38682,-0.0338 2.19501,-0.63807 z m -8.30421,-7.08973 c 8.67048,-1.48681 11.14105,-2.29641 11.51147,-3.77231 0.11822,-0.471 0.13878,-0.93251 0.0457,-1.02559 -0.0931,-0.0931 -1.97745,0.45584 -4.1875,1.2198 -2.21006,0.76396 -5.12954,1.58672 -6.48773,1.82835 -2.86898,0.51041 -16.3551283,0.73939 -19.2797683,0.32734 -2.96278,-0.41741 -5.6816697,-1.28921 -6.5533317,-2.10129 -0.922581,-0.85951 -1.01952,-0.87412 -1.280906,-0.19295 -0.369748,0.96354 2.910073,2.37604 8.2403937,3.54883 4.96690999,1.09283 12.203732,1.16033 17.9916623,0.16782 z m -2.11666,-6.00693 c -0.48507,-0.15534 -1.1994503,-0.28244 -1.5875003,-0.28244 -0.55869,0 -0.52197,0.0588 0.17639,0.28244 0.48507,0.15535 1.1994403,0.28245 1.5875003,0.28245 0.55868,0 0.52196,-0.0588 -0.17639,-0.28245 z m -1.6092303,-2.43428 c 0.0968,-0.15662 -0.2159,-0.46333 -0.69489,-0.68157 -0.9786,-0.44588 -1.13838,-1.05605 -0.34172,-1.30494 1.82393,-0.56981 1.8086,-0.54885 0.79375,-1.08573 -0.53363,-0.28231 -0.97013,-0.81239 -0.97013,-1.17812 0,-0.40805 0.37476,-0.79572 0.97013,-1.00357 l 0.97014,-0.33868 -0.97014,-0.25813 c -1.35273,-0.35993 -1.29765,-1.46476 0.0882,-1.76914 0.58208,-0.12785 1.05833,-0.34378 1.05833,-0.47986 0,-0.13607 -0.47625,-0.42717 -1.05833,-0.64688 -1.43589,-0.54199 -1.32998,-1.06334 0.35278,-1.73665 0.77611,-0.31053 1.4111103,-0.67329 1.4111103,-0.80613 0,-0.13284 -0.51561,-0.39341 -1.1458003,-0.57906 -1.30656,-0.38489 -1.81022,-1.57226 -0.66692,-1.57226 0.38965,0 1.15535,-0.18078 1.7015603,-0.40174 l 0.9931,-0.40173 -1.5875003,-0.40889 c -1.76331,-0.45416 -2.17403,-1.37337 -0.66546,-1.48932 0.50712,-0.039 1.5274103,-0.32382 2.2673203,-0.63297 1.89265,-0.7908 1.18565,-1.29637 -2.1022203,-1.50329 -2.24416,-0.14123 -2.67464,-0.081 -2.67464,0.37403 0,0.33984 -0.6257,0.73388 -1.675692,1.05529 l -1.675695,0.51294 1.322917,0.0367 c 2.14795,0.0596 1.769,1.10586 -0.852322,2.35312 l -2.175238,1.035 1.910655,0.17639 c 2.254514,0.20813 2.574625,0.94822 0.685278,1.58435 l -1.225374,0.41258 1.163726,0.23275 c 1.722843,0.34457 1.329182,1.27581 -0.829642,1.96259 l -1.763888,0.56115 1.763888,0.1139 c 0.970139,0.0626 1.907974,0.2564 2.084077,0.43056 0.385823,0.38157 -0.376057,1.4049 -1.045975,1.4049 -0.254653,0 -0.909902,0.18943 -1.456108,0.42096 l -0.993105,0.42096 1.5875,0.1964 c 2.274482,0.28139 2.008152,0.93648 -0.705555,1.73545 l -1.234722,0.36353 1.576412,-0.0694 c 1.265138,-0.0556 1.601657,0.0553 1.704258,0.56202 0.09274,0.45801 -0.266456,0.79702 -1.308241,1.23472 -0.789848,0.33185 -1.437703,0.69241 -1.439675,0.80125 -0.0021,0.10884 0.774337,0.39727 1.725133,0.64095 0.950796,0.24368 2.019134,0.65542 2.374088,0.91496 0.55226,0.40383 0.78481,0.37261 1.612,-0.2164 0.53165,-0.37857 1.04583,-0.81645 1.14263,-0.97307 z m 11.3106203,1.05767 c 0.93843,-0.28963 0.83088,-0.33007 -0.94932,-0.35695 -1.10421,-0.0167 -2.09703,-0.17494 -2.20626,-0.35168 -0.22329,-0.36128 -0.85896,-0.32466 -1.51873,0.0875 -0.2486,0.15531 -0.44097,0.1125 -0.44097,-0.0981 0,-0.23015 -0.91435,-0.35767 -2.38125,-0.33211 -2.34791,0.0409 -2.35903,0.0456 -0.79375,0.33471 0.87312,0.16128 2.06375,0.43324 2.64583,0.60436 1.49636,0.43991 4.396,0.49759 5.64445,0.11227 z M 1.1597677,184.74604 c 0.705915,-0.0322 0.696581,-0.0562 -0.111626,-0.28626 -0.69173001,-0.19695 -0.94175801,-0.0992 -1.15926701,0.4531 -0.152527,0.38732 -0.161992,0.9527 -0.02102,1.25641 0.19062,0.41071 0.290276,0.30363 0.388948,-0.41794 0.09671,-0.70725 0.341411,-0.97967 0.90298001,-1.00531 z m -13.3191117,-0.22942 c -0.121505,-0.92163 -0.367248,-3.58069 -0.546098,-5.90902 -0.178849,-2.32834 -0.631663,-5.34459 -1.006254,-6.70278 -0.37459,-1.35819 -0.780746,-3.26319 -0.902567,-4.23333 -0.259332,-2.06522 -2.431396,-11.52658 -3.254747,-14.17746 -0.312655,-1.00663 -0.802681,-1.92011 -1.088947,-2.02996 -0.42994,-0.16498 -0.491949,0.12272 -0.356454,1.65385 0.393172,4.44295 1.09044,8.75876 1.838341,11.37857 0.443126,1.55222 1.080671,3.85409 1.416766,5.11527 0.336095,1.26118 0.826139,3.00743 1.088986,3.88056 0.42278,1.40439 1.201794,8.98383 1.201794,11.6929 0,0.84877 0.143857,1.0071 0.915048,1.0071 0.887458,0 0.908388,-0.0505 0.694132,-1.6757 z m 6.8574857,-0.0449 3.704167,-0.99718 0.261778,-1.90431 c 0.306741,-2.23138 0.40754299,-10.74074 0.132507,-11.18576 -0.10379,-0.16794 -1.322027,0.0748 -2.707188,0.53933 -3.226946,1.08228 -4.062162,0.99159 -3.964259,-0.43046 0.08146,-1.18318 1.89273,-2.97907 2.926087,-2.90123 0.481316,0.0363 5.02420099,-1.64677 5.58832099,-2.07033 0.163999,-0.12314 -0.724475,-2.70647 -1.07454,-3.12433 -0.169372,-0.20218 -0.280762,-0.16719 -0.280762,0.0882 0,0.23284 -0.43656199,0.42899 -0.97013899,0.4359 -0.533576,0.007 -1.922638,0.25695 -3.086805,0.55563 -3.82977,0.98258 -4.920131,1.23658 -6.5263887,1.52034 -2.623069,0.46339 -2.770766,0.59278 -2.576043,2.25664 0.09498,0.81161 0.467568,2.58691 0.827965,3.9451 0.360397,1.3582 0.747356,3.50132 0.859909,4.7625 0.485032,5.43489 1.019103,9.01386 1.38108,9.25502 0.646551,0.43074 1.6322297,0.29732 5.5043107,-0.74505 z m 3.079457,0.44912 c -0.117228,-0.11723 -0.421499,-0.12976 -0.676158,-0.0278 -0.281422,0.11262 -0.197831,0.19621 0.213137,0.21314 0.371885,0.0153 0.580246,-0.0681 0.463021,-0.18529 z m 21.5309053,-0.38203 c -0.33729,-0.0883 -0.97229,-0.0915 -1.41111,-0.007 -0.43882,0.0844 -0.16286,0.15662 0.61325,0.16054 0.77611,0.004 1.13515,-0.0651 0.79786,-0.15343 z m -3.89202,-1.02908 c -0.11722,-0.11723 -0.4215,-0.12976 -0.67616,-0.0278 -0.28142,0.11262 -0.19783,0.19621 0.21314,0.21314 0.37189,0.0153 0.58025,-0.0681 0.46302,-0.18529 z m 5.03443,-0.15804 c 0,-0.40322 -2.7139,-0.40095 -3.70416,0.003 -0.47899,0.19543 0.002,0.29485 1.4993,0.30958 1.21268,0.0119 2.20486,-0.12876 2.20486,-0.31267 z m -8.12096,-1.22485 c -0.63348,-0.76329 -0.29546,-0.94907 2.2063,-1.21258 l 2.2105,-0.23283 -2.0351,-0.28465 c -1.9097,-0.2671 -2.09201,-0.22775 -2.95853,0.63878 -0.50788,0.50788 -1.14926,0.92342 -1.4253,0.92342 -0.27603,0 -0.4037703,0.15875 -0.28385,0.35277 0.11992,0.19403 0.78372,0.35278 1.47513,0.35278 1.08628,0 1.19646,-0.0731 0.81085,-0.53769 z m 7.67999,-0.15217 c 0.24254,-0.009 0.44097,-0.18361 0.44097,-0.38884 0,-0.23713 -0.89988,-0.33357 -2.46889,-0.26458 -1.35788,0.0597 -2.46913,0.21439 -2.46944,0.34375 -0.001,0.40329 0.82034,0.54783 2.46889,0.4345 0.87313,-0.06 1.78594,-0.1162 2.02847,-0.12483 z m 0.44097,-1.74253 c 0,-0.17365 -0.635,-0.37628 -1.41111,-0.45029 -1.35133,-0.12887 -1.685,0.0218 -1.17592,0.53083 0.3528,0.3528 2.58703,0.28325 2.58703,-0.0805 z M 1.4009197,179.62819 c 0,-0.0763 -0.238125,-0.13865 -0.52916701,-0.13865 -0.291042,0 -0.529167,0.15377 -0.529167,0.34171 0,0.18793 0.238125,0.25033 0.529167,0.13864 0.29104201,-0.11168 0.52916701,-0.26545 0.52916701,-0.3417 z m 10.3780943,-0.35278 c 0.30691,-0.11777 0.55802,-0.42423 0.55802,-0.68102 0,-0.25679 0.35718,-0.53568 0.79375,-0.61977 0.72534,-0.1397 0.71543,-0.15702 -0.1149,-0.20093 -0.55835,-0.0295 -1.22806,0.29197 -1.73719,0.83391 -0.8079,0.85997 -0.6276,1.10063 0.50032,0.66781 z m 8.6719,-0.70556 c 0,-0.0762 -0.67468,-0.11986 -1.4993,-0.0969 -1.37571,0.0383 -1.41206,0.0619 -0.44097,0.28688 0.98263,0.22761 1.94027,0.13385 1.94027,-0.18998 z m -0.0574,-2.20877 0.0756,-1.28126 -1.97998,0.06 c -2.56495,0.0777 -2.77612,0.33357 -0.53025,0.64245 0.98256,0.13514 1.78647,0.38956 1.78647,0.56538 0,0.34241 -1.37533,0.45273 -4.7625,0.38201 -1.16417,-0.0243 -1.94867,0.0342 -1.74335,0.12997 0.68977,0.3218 3.49184,0.71952 5.29281,0.75126 l 1.78557,0.0315 0.0756,-1.28126 z m -7.09368,-0.61245 c -0.11723,-0.11723 -0.4215,-0.12976 -0.67616,-0.0278 -0.28142,0.11262 -0.19783,0.19621 0.21314,0.21314 0.37188,0.0153 0.58024,-0.0681 0.46302,-0.18529 z m 7.15109,-1.55075 c 0,-0.19403 -0.35718,-0.34162 -0.79375,-0.32799 -0.75737,0.0237 -0.76142,0.0387 -0.0882,0.32799 0.38806,0.16675 0.74524,0.31434 0.79375,0.32798 0.0485,0.0136 0.0882,-0.13396 0.0882,-0.32798 z m 0.005,-1.85209 c 0.003,-0.24253 0.10955,-0.83785 0.23757,-1.32291 0.1933,-0.7325 0.14765,-0.81295 -0.26941,-0.47478 -0.27618,0.22394 -0.89902,0.47423 -1.38409,0.55618 l -0.88194,0.14901 0.88194,0.37862 c 0.89129,0.38264 0.88366,0.39263 -0.70555,0.92266 -0.29105,0.0971 0.0661,0.18902 0.79375,0.20434 0.83564,0.0176 1.32469,-0.13457 1.32773,-0.41312 z M 2.4300437,171.50426 c 0.08083,-0.0707 -0.276363,-0.12861 -0.793768,-0.12861 -0.610612,0 -0.94074201,0.19006 -0.94074201,0.54158 0,0.44882 0.135957,0.47085 0.79375001,0.12861 0.436563,-0.22714 0.859896,-0.47085 0.940742,-0.54158 z m -0.146992,-2.38255 1.058333,-0.45822 -1.300967,-0.15802 c -1.034937,-0.1257 -1.33477001,-0.0288 -1.46627801,0.47414 -0.193245,0.73896 0.246027,0.77549 1.70891201,0.1421 z m -14.4102637,-4.98142 c 0.241724,-0.24172 1.677878,-0.55413 3.1914537,-0.69424 1.513575,-0.14012 2.94344,-0.41132 3.177476,-0.60267 0.234033,-0.19135 0.58656,-0.24838 0.783389,-0.12673 0.196829,0.12164 0.830898,-0.0234 1.409044,-0.32241 0.578146,-0.29897 1.53531,-0.54359 2.127028,-0.54359 0.92431299,0 1.07585199,-0.12961 1.07585199,-0.92019 0,-0.79115 -0.1169,-0.89084 -0.83360999,-0.71096 -0.458485,0.11507 -1.851787,0.35341 -3.096229,0.52965 -1.244441,0.17623 -2.972752,0.50874 -3.840694,0.73889 -0.867943,0.23016 -2.2130777,0.58119 -2.9891887,0.78006 -2.589076,0.66343 -2.998611,0.9218 -2.998611,1.89182 0,0.78084 0.112723,0.8775 0.777297,0.66658 0.427513,-0.13569 0.97507,-0.44448 1.216793,-0.68621 z m 15.0936777,-0.0848 c -0.116483,-0.53357 -0.346488,-1.36701 -0.511122,-1.85208 -0.164638,-0.48507 -0.40592,-1.83444 -0.536183,-2.99861 -0.130267,-1.16417 -0.405084,-2.43178 -0.610711,-2.81693 -0.205628,-0.38514 -0.57897601,-1.7767 -0.82966001,-3.09234 -0.250684,-1.31565 -0.697434,-2.82615 -0.992773,-3.35668 -0.295342,-0.53053 -0.63518699,-1.20273 -0.75520499,-1.49377 -0.120022,-0.29104 -0.713994,-0.92604 -1.319936,-1.41111 -0.940819,-0.75314 -1.421934,-0.87138 -3.29432,-0.80963 -4.5271687,0.1493 -8.7628317,1.81159 -10.5343827,4.13421 -0.674183,0.8839 -0.849832,1.42921 -0.679265,2.1088 0.126531,0.50414 0.303306,0.91662 0.392834,0.91662 0.08953,0 0.890821,-0.50091 1.780652,-1.11313 3.476656,-2.392 7.8000217,-3.12757 12.0222457,-2.04545 2.11306099,0.54156 2.79991599,1.52056 2.83477699,4.04052 0.04323,3.12461 0.426826,5.0464 1.055998,5.29043 0.54389901,0.21095 0.54219501,0.26168 -0.02275,0.67778 -0.552746,0.40712 -0.56442,0.5971 -0.123074,2.00328 0.26817101,0.85443 0.50328001,1.2757 0.52246401,0.93615 0.04348,-0.76952 0.592339,-0.80657 0.87908,-0.0593 0.338737,0.88276 0.254324,1.20587 -0.315045,1.20587 -0.291041,0 -0.529166,0.15875 -0.529166,0.35278 0,0.19402 0.399898,0.35277 0.888664,0.35277 0.785612,0 0.864108,-0.1125 0.676882,-0.97014 z m -15.6766567,-2.02847 c 0.8249,-0.29104 1.94674,-0.52916 2.492978,-0.52916 0.5462377,0 1.0796977,-0.14003 1.1854637,-0.31116 0.105767,-0.17113 1.234211,-0.42273 2.50765,-0.55911 1.27344,-0.13637 2.744086,-0.47162 3.268098,-0.745 0.524016,-0.27338 1.389317,-0.49803 1.922893,-0.49923 1.14785799,-0.002 1.19638199,-0.47044 0.46990399,-4.53099 -0.55146299,-3.08232 -1.15596499,-3.80429 -3.55942899,-4.25109 -2.127603,-0.39551 -3.889841,-0.24829 -6.7000577,0.55973 -2.267742,0.65204 -5.594688,2.76787 -5.372423,3.41668 0.07419,0.21658 0.51959,2.10026 0.989771,4.18595 0.470181,2.08569 0.953978,3.79225 1.075104,3.79236 0.121127,10e-5 0.895149,-0.23794 1.720048,-0.52898 z m 75.022225,-61.6987 c -0.714,-1.089691 -6.38856,-4.387511 -7.99445,-4.646041 -2.05866,-0.33143 -2.76263,-0.77067 -3.47501,-2.16823 -1.0114,-1.98416 -2.63277,-7.41925 -2.39675,-8.03429 0.3577,-0.93215 0.8933,-0.58064 1.27496,0.83675 0.25806,0.95837 0.55266,1.35682 0.97811,1.32292 0.45389,-0.0362 0.84365,0.62033 1.53152,2.57963 0.50748,1.44548 1.10533,2.68902 1.32854,2.76343 0.52387,0.17462 0.51131,-0.0465 -0.0835,-1.47009 -0.26913,-0.64412 -0.60271,-1.84224 -0.74129,-2.6625 -0.18213,-1.07799 -0.60843,-1.81806 -1.53795,-2.6699 -0.70729,-0.64818 -1.18324,-1.28125 -1.05767,-1.40682 0.12557,-0.12557 1.05022,0.18818 2.05477,0.69723 2.54105,1.28764 4.75095,1.48201 6.49373,0.57112 1.22494,-0.64024 1.44922,-0.66162 2.10696,-0.20092 0.40486,0.28357 0.60382,0.51558 0.44214,0.51558 -0.16168,0 0.0232,0.27782 0.41097,0.61736 0.65815,0.57639 0.68247,0.82807 0.3665,3.79237 -0.48728,4.5713 -0.2565,6.77078 0.88426,8.4277 0.51958,0.75468 0.94469,1.508741 0.94469,1.675691 0,0.62517 -0.99747,0.2726 -1.53055,-0.54099 z m -4.32777,-5.852311 c -0.26627,-0.77285 -0.5887,-2.29498 -0.71652,-3.3825 -0.205,-1.74426 -0.82975,-2.74198 -1.37534,-2.1964 -0.24191,0.24191 1.45991,5.86084 1.95623,6.45886 0.64881,0.78177 0.66715,0.66278 0.13563,-0.87996 z m -2.28764,-1.38497 c -0.56486,-1.88534 -0.84051,-1.60969 -0.32071,0.32071 0.21954,0.81528 0.4791,1.40239 0.57681,1.30468 0.0977,-0.0977 -0.0175,-0.82914 -0.2561,-1.62539 z m 5.29759,-2.91729 c 0.0144,-0.71374 0.27561,-1.54718 0.58051,-1.85208 0.70576,-0.70576 -0.0829,-0.7559 -0.99534,-0.0633 -0.66808,0.50715 -0.80823,2.43263 -0.36224,4.97697 l 0.24734,1.41111 0.25179,-1.5875 c 0.13849,-0.87312 0.26356,-2.17147 0.27794,-2.88522 z m -2.24712,-1.26953 c -0.39987,-0.39986 -0.46587,0.14757 -0.24573,2.03808 l 0.22594,1.94028 0.10798,-1.89109 c 0.0594,-1.0401 0.0197,-1.97937 -0.0882,-2.08727 z m -3.99339,0.79435 c -0.1543,-0.74263 -0.47122,-1.4138 -0.70427,-1.49148 -0.29181,-0.0973 -0.23888,0.35748 0.17002,1.46076 0.70293,1.89662 0.92457,1.90936 0.53425,0.0307 z m 2.29056,-1.79163 c -0.11723,-0.11722 -0.4215,-0.12975 -0.67616,-0.0278 -0.28142,0.11261 -0.19783,0.19621 0.21314,0.21314 0.37188,0.0153 0.58024,-0.0681 0.46302,-0.18529 z m -3.9614,-12.0168 c -3.2708,-0.71229 -5.48004,-3.53038 -4.95629,-6.3222 0.45123,-2.40528 3.08881,-5.53385 5.3088,-6.29705 l 1.30136,-0.44739 -0.96271,-0.75726 c -1.21418,-0.95508 -1.93274,-0.95452 -3.14933,0.002 -0.90616,0.71279 -0.95787,0.71823 -0.83716,0.0882 0.0708,-0.36933 0.71758,-0.98786 1.43738,-1.3745 1.29308,-0.69457 1.32372,-0.69491 2.56181,-0.0282 0.6892,0.37116 1.60334,1.24312 2.03143,1.9377 0.4281,0.69459 1.61498,2.17431 2.63751,3.28829 1.21693,1.32576 1.85914,2.33277 1.85914,2.9152 0,0.48939 0.18776,1.19045 0.41724,1.55791 0.3417,0.54714 0.26014,0.9774 -0.45051,2.37646 -1.30597,2.57108 -4.06308,3.7432 -7.19867,3.06036 z m 4.34552,-1.53912 c 0.71172,-0.43392 1.44415,-1.3322 1.86859,-2.29173 0.69102,-1.56216 0.6912,-1.59324 0.018,-3.0774 -0.37402,-0.82462 -1.48141,-2.27597 -2.46087,-3.22523 -1.64114,-1.59053 -1.8831,-1.70933 -3.0844,-1.51438 -1.60486,0.26043 -2.41553,0.96597 -3.7231,3.2403 -1.65925,2.88604 -1.19321,4.86511 1.56715,6.65496 1.79506,1.16394 4.11589,1.24915 5.8146,0.21348 z m 9.23642,-3.4542 c 0,-0.35349 0.25573,-1.39325 0.56829,-2.31056 0.58992,-1.73132 1.77601,-2.83495 2.82886,-2.63219 0.85771,0.16518 0.64997,0.81418 -0.27715,0.86584 -0.75105,0.0419 -2.14806,1.56614 -2.28396,2.49203 -0.0939,0.64011 0.18255,0.5748 1.80979,-0.42745 1.37412,-0.84634 2.65509,-1.14179 2.63674,-0.60816 -0.005,0.14552 -0.64778,0.55918 -1.42838,0.91925 -0.7806,0.36006 -1.87098,1.03475 -2.42307,1.49931 -1.20447,1.01348 -1.43112,1.04546 -1.43112,0.20193 z"
       style="fill:#000000;stroke-width:0.35277775" />
  </g>
</svg>
